# xmcd CD database file
#
# Track frame offsets:
#	150
#	17662
#	41121
#	68924
#	86456
#	104180
#	136847
#	166809
#	193162
#	225602
#	229731
#	260084
#
# Disc length: 3648 seconds
#
# Revision: 1
# Processed by: cddbd v1.5.2PL0 Copyright (c) Steve Scherf et al.
# Submitted via: CDex 1.51
#
DISCID=a40e3e0c
DTITLE=Trio Grande and Matthew Bourne - Un matin plein de promesses
DYEAR=2007
DGENRE=Jazz
TTITLE0=L'acrobate
TTITLE1=Caldédine
TTITLE2=Cinéma-Danse
TTITLE3=Un matin plein de promesses
TTITLE4=Valence Valse
TTITLE5=Le bossu de Rossignol
TTITLE6=Le Ciel
TTITLE7=Scarabée
TTITLE8=D'jaimily
TTITLE9=Menuet
TTITLE10=L'hypnotique
TTITLE11=La fin de l'été
EXTD=YEAR: 2007
EXTT0=
EXTT1=
EXTT2=
EXTT3=
EXTT4=
EXTT5=
EXTT6=
EXTT7=
EXTT8=
EXTT9=
EXTT10=
EXTT11=
PLAYORDER=
